<svg xmlns="http://www.w3.org/2000/svg" width="800" height="800"><rect width="800" height="800" x="0" y="0" fill="#FFFFFF" id="background"/><g transform="translate(400,400)" id="viz"><path fill="rgb(251, 247, 175)" display="none" d="M1.8369701987210297e-14,-300A300,300,0,0,1,14.900969428281318,-299.6297066548933L7.450484714140659,-149.81485332744666A150,150,0,0,0,9.184850993605149e-15,-150Z"><title>0</title></path><path fill="rgb(220, 241, 159)" display="" d="M14.900969428281318,-299.6297066548933A300,300,0,0,1,28.96080329810847,-298.5988477411262L14.480401649054235,-149.2994238705631A150,150,0,0,0,7.450484714140659,-149.81485332744666Z"><title>1</title></path><path fill="rgb(190, 229, 160)" display="" d="M28.96080329810847,-298.5988477411262A300,300,0,0,1,43.61271338462324,-296.8129566431201L21.80635669231162,-148.40647832156006A150,150,0,0,0,14.480401649054235,-149.2994238705631Z"><title>2</title></path><path fill="rgb(195, 42, 74)" display="" d="M43.61271338462324,-296.8129566431201A300,300,0,0,1,74.93859208677159,-290.4895994972151L37.469296043385796,-145.24479974860756A150,150,0,0,0,21.80635669231162,-148.40647832156006Z"><title>4</title></path><path fill="rgb(237, 103, 73)" display="" d="M74.93859208677159,-290.4895994972151A300,300,0,0,1,93.52511785845998,-285.0492103647389L46.76255892922999,-142.52460518236944A150,150,0,0,0,37.469296043385796,-145.24479974860756Z"><title>5</title></path><path fill="rgb(248, 143, 84)" display="" d="M93.52511785845998,-285.0492103647389A300,300,0,0,1,162.44219021196778,-252.2152549691213L81.22109510598389,-126.10762748456065A150,150,0,0,0,46.76255892922999,-142.52460518236944Z"><title>6</title></path><path fill="rgb(131, 204, 165)" display="" d="M162.44219021196778,-252.2152549691213A300,300,0,0,1,167.56251081166263,-248.842932329796L83.78125540583132,-124.421466164898A150,150,0,0,0,81.22109510598389,-126.10762748456065Z"><title>7</title></path><path fill="rgb(253, 196, 116)" display="" d="M167.56251081166263,-248.842932329796A300,300,0,0,1,175.79473991451664,-243.09711931322315L87.89736995725832,-121.54855965661157A150,150,0,0,0,83.78125540583132,-124.421466164898Z"><title>8</title></path><path fill="rgb(154, 214, 163)" display="" d="M175.79473991451664,-243.09711931322315A300,300,0,0,1,219.48153966619032,-204.51859022044556L109.74076983309516,-102.25929511022278A150,150,0,0,0,87.89736995725832,-121.54855965661157Z"><title>9</title></path><path fill="rgb(205, 55, 75)" display="" d="M219.48153966619032,-204.51859022044556A300,300,0,0,1,252.18129516277403,-162.49490567407287L126.09064758138702,-81.24745283703643A150,150,0,0,0,109.74076983309516,-102.25929511022278Z"><title>10</title></path><path fill="rgb(203, 234, 159)" display="" d="M252.18129516277403,-162.49490567407287A300,300,0,0,1,255.45520730293077,-157.2979245311796L127.72760365146539,-78.6489622655898A150,150,0,0,0,126.09064758138702,-81.24745283703643Z"><title>11</title></path><path fill="rgb(230, 245, 163)" display="" d="M255.45520730293077,-157.2979245311796A300,300,0,0,1,298.8100011329442,-26.694254492866122L149.4050005664721,-13.347127246433061A150,150,0,0,0,127.72760365146539,-78.6489622655898Z"><title>12</title></path><path fill="rgb(242, 116, 75)" display="" d="M298.8100011329442,-26.694254492866122A300,300,0,0,1,299.6670480858257,14.130120011076503L149.83352404291284,7.0650600055382515A150,150,0,0,0,149.4050005664721,-13.347127246433061Z"><title>13</title></path><path fill="rgb(252, 171, 99)" display="" d="M299.6670480858257,14.130120011076503A300,300,0,0,1,292.65601012554737,65.9731743771323L146.32800506277368,32.98658718856615A150,150,0,0,0,149.83352404291284,7.0650600055382515Z"><title>16</title></path><path fill="rgb(224, 79, 74)" display="" d="M292.65601012554737,65.9731743771323A300,300,0,0,1,291.9308644205623,69.1112899507982L145.96543221028114,34.5556449753991A150,150,0,0,0,146.32800506277368,32.98658718856615Z"><title>17</title></path><path fill="rgb(251, 164, 95)" display="" d="M291.9308644205623,69.1112899507982A300,300,0,0,1,281.78332091686224,102.94736544984836L140.89166045843112,51.47368272492418A150,150,0,0,0,145.96543221028114,34.5556449753991Z"><title>18</title></path><path fill="rgb(254, 217, 136)" display="" d="M281.78332091686224,102.94736544984836A300,300,0,0,1,266.3767155132613,137.99799068235404L133.18835775663064,68.99899534117702A150,150,0,0,0,140.89166045843112,51.47368272492418Z"><title>19</title></path><path fill="rgb(253, 190, 112)" display="" d="M266.3767155132613,137.99799068235404A300,300,0,0,1,262.06175781932734,146.02614522284784L131.03087890966367,73.01307261142392A150,150,0,0,0,133.18835775663064,68.99899534117702Z"><title>20</title></path><path fill="rgb(69, 118, 178)" display="" d="M262.06175781932734,146.02614522284784A300,300,0,0,1,259.3421934980637,150.80327142211763L129.67109674903185,75.40163571105882A150,150,0,0,0,131.03087890966367,73.01307261142392Z"><title>21</title></path><path fill="rgb(227, 85, 73)" display="" d="M259.3421934980637,150.80327142211763A300,300,0,0,1,248.07177259283282,168.70209139975074L124.03588629641641,84.35104569987537A150,150,0,0,0,129.67109674903185,75.40163571105882Z"><title>23</title></path><path fill="rgb(72, 112, 176)" display="" d="M248.07177259283282,168.70209139975074A300,300,0,0,1,241.02951394371195,178.61907347217422L120.51475697185597,89.30953673608711A150,150,0,0,0,124.03588629641641,84.35104569987537Z"><title>24</title></path><path fill="rgb(252, 177, 103)" display="" d="M241.02951394371195,178.61907347217422A300,300,0,0,1,236.02332114480828,185.183670650991L118.01166057240414,92.5918353254955A150,150,0,0,0,120.51475697185597,89.30953673608711Z"><title>25</title></path><path fill="rgb(66, 132, 180)" display="" d="M236.02332114480828,185.183670650991A300,300,0,0,1,231.98279623328267,190.2208775392103L115.99139811664134,95.11043876960515A150,150,0,0,0,118.01166057240414,92.5918353254955Z"><title>27</title></path><path fill="rgb(225, 243, 161)" display="" d="M231.98279623328267,190.2208775392103A300,300,0,0,1,200.7133920093881,222.96666627118438L100.35669600469404,111.48333313559219A150,150,0,0,0,115.99139811664134,95.11043876960515Z"><title>28</title></path><path fill="rgb(245, 129, 78)" display="" d="M200.7133920093881,222.96666627118438A300,300,0,0,1,190.53120240872255,231.72798904898474L95.26560120436127,115.86399452449237A150,150,0,0,0,100.35669600469404,111.48333313559219Z"><title>29</title></path><path fill="rgb(75, 105, 174)" display="" d="M190.53120240872255,231.72798904898474A300,300,0,0,1,188.6861288334331,233.2328124125186L94.34306441671654,116.6164062062593A150,150,0,0,0,95.26560120436127,115.86399452449237Z"><title>30</title></path><path fill="rgb(161, 217, 163)" display="" d="M188.6861288334331,233.2328124125186A300,300,0,0,1,184.36780719656122,236.66117482496287L92.18390359828061,118.33058741248144A150,150,0,0,0,94.34306441671654,116.6164062062593Z"><title>31</title></path><path fill="rgb(254, 241, 167)" display="" d="M184.36780719656122,236.66117482496287A300,300,0,0,1,128.94113656690737,270.87669390487275L64.47056828345369,135.43834695243638A150,150,0,0,0,92.18390359828061,118.33058741248144Z"><title>34</title></path><path fill="rgb(215, 68, 75)" display="" d="M128.94113656690737,270.87669390487275A300,300,0,0,1,117.10247158173772,276.20103393986113L58.55123579086886,138.10051696993057A150,150,0,0,0,64.47056828345369,135.43834695243638Z"><title>35</title></path><path fill="rgb(89, 86, 165)" display="" d="M117.10247158173772,276.20103393986113A300,300,0,0,1,98.51728812581267,283.3625662297962L49.258644062906335,141.6812831148981A150,150,0,0,0,58.55123579086886,138.10051696993057Z"><title>36</title></path><path fill="rgb(252, 177, 103)" display="" d="M98.51728812581267,283.3625662297962A300,300,0,0,1,80.75577825253025,288.9264686366207L40.377889126265124,144.46323431831036A150,150,0,0,0,49.258644062906335,141.6812831148981Z"><title>39</title></path><path fill="rgb(254, 226, 147)" display="" d="M80.75577825253025,288.9264686366207A300,300,0,0,1,44.224994321391215,296.7223447556198L22.112497160695607,148.3611723778099A150,150,0,0,0,40.377889126265124,144.46323431831036Z"><title>40</title></path><path fill="rgb(197, 231, 159)" display="" d="M44.224994321391215,296.7223447556198A300,300,0,0,1,37.419065817986045,297.65720806543425L18.709532908993022,148.82860403271712A150,150,0,0,0,22.112497160695607,148.3611723778099Z"><title>44</title></path><path fill="rgb(177, 22, 70)" display="" d="M37.419065817986045,297.65720806543425A300,300,0,0,1,-17.16964706331142,299.5082690339639L-8.58482353165571,149.75413451698196A150,150,0,0,0,18.709532908993022,148.82860403271712Z"><title>49</title></path><path fill="rgb(250, 157, 91)" display="" d="M-17.16964706331142,299.5082690339639A300,300,0,0,1,-28.49742814359984,298.6434271655755L-14.24871407179992,149.32171358278774A150,150,0,0,0,-8.58482353165571,149.75413451698196Z"><title>50</title></path><path fill="rgb(239, 109, 74)" display="" d="M-28.49742814359984,298.6434271655755A300,300,0,0,1,-47.085711821367966,296.28185186115445L-23.542855910683983,148.14092593057723A150,150,0,0,0,-14.24871407179992,149.32171358278774Z"><title>51</title></path><path fill="rgb(254, 238, 163)" display="" d="M-47.085711821367966,296.28185186115445A300,300,0,0,1,-62.98050766539822,293.31460184281434L-31.49025383269911,146.65730092140717A150,150,0,0,0,-23.542855910683983,148.14092593057723Z"><title>52</title></path><path fill="rgb(176, 223, 161)" display="" d="M-62.98050766539822,293.31460184281434A300,300,0,0,1,-68.93349330961142,291.9728985713122L-34.46674665480571,145.9864492856561A150,150,0,0,0,-31.49025383269911,146.65730092140717Z"><title>53</title></path><path fill="rgb(254, 230, 153)" display="" d="M-68.93349330961142,291.9728985713122A300,300,0,0,1,-94.9376537268848,284.5818720594025L-47.4688268634424,142.29093602970124A150,150,0,0,0,-34.46674665480571,145.9864492856561Z"><title>56</title></path><path fill="rgb(254, 238, 163)" display="" d="M-94.9376537268848,284.5818720594025A300,300,0,0,1,-96.53759186198623,284.04311883495535L-48.268795930993114,142.02155941747768A150,150,0,0,0,-47.4688268634424,142.29093602970124Z"><title>58</title></path><path fill="rgb(94, 79, 162)" display="" d="M-96.53759186198623,284.04311883495535A300,300,0,0,1,-107.63578200645468,280.02596028200486L-53.81789100322734,140.01298014100243A150,150,0,0,0,-48.268795930993114,142.02155941747768Z"><title>60</title></path><path fill="rgb(146, 211, 164)" display="" d="M-107.63578200645468,280.02596028200486A300,300,0,0,1,-122.85222047505555,273.69203847453866L-61.42611023752777,136.84601923726933A150,150,0,0,0,-53.81789100322734,140.01298014100243Z"><title>61</title></path><path fill="rgb(116, 196, 167)" display="" d="M-122.85222047505555,273.69203847453866A300,300,0,0,1,-156.2204482750145,256.1155433408006L-78.11022413750725,128.0577716704003A150,150,0,0,0,-61.42611023752777,136.84601923726933Z"><title>63</title></path><path fill="rgb(139, 208, 165)" display="" d="M-156.2204482750145,256.1155433408006A300,300,0,0,1,-157.54879393520562,255.3005631203388L-78.77439696760281,127.6502815601694A150,150,0,0,0,-78.11022413750725,128.0577716704003Z"><title>68</title></path><path fill="rgb(69, 118, 178)" display="" d="M-157.54879393520562,255.3005631203388A300,300,0,0,1,-161.0847290910486,253.08439314517895L-80.5423645455243,126.54219657258948A150,150,0,0,0,-78.77439696760281,127.6502815601694Z"><title>69</title></path><path fill="rgb(124, 200, 166)" display="" d="M-161.0847290910486,253.08439314517895A300,300,0,0,1,-165.8820891229442,249.9662627400098L-82.9410445614721,124.9831313700049A150,150,0,0,0,-80.5423645455243,126.54219657258948Z"><title>70</title></path><path fill="rgb(246, 250, 175)" display="" d="M-165.8820891229442,249.9662627400098A300,300,0,0,1,-169.71528609801052,247.37971150575473L-84.85764304900526,123.68985575287736A150,150,0,0,0,-82.9410445614721,124.9831313700049Z"><title>79</title></path><path fill="rgb(241, 249, 170)" display="" d="M-169.71528609801052,247.37971150575473A300,300,0,0,1,-173.1511391788646,244.98710782623127L-86.5755695894323,122.49355391311563A150,150,0,0,0,-84.85764304900526,123.68985575287736Z"><title>82</title></path><path fill="rgb(69, 118, 178)" display="" d="M-173.1511391788646,244.98710782623127A300,300,0,0,1,-176.51233244210215,242.5765786217804L-88.25616622105107,121.2882893108902A150,150,0,0,0,-86.5755695894323,122.49355391311563Z"><title>83</title></path><path fill="rgb(244, 249, 173)" display="" d="M-176.51233244210215,242.5765786217804A300,300,0,0,1,-195.01395793847283,227.96832281957847L-97.50697896923641,113.98416140978924A150,150,0,0,0,-88.25616622105107,121.2882893108902Z"><title>85</title></path><path fill="rgb(248, 249, 176)" display="" d="M-195.01395793847283,227.96832281957847A300,300,0,0,1,-207.29444781142666,216.86173453736762L-103.64722390571333,108.43086726868381A150,150,0,0,0,-97.50697896923641,113.98416140978924Z"><title>90</title></path><path fill="rgb(244, 123, 76)" display="" d="M-207.29444781142666,216.86173453736762A300,300,0,0,1,-214.428078704629,209.81086497853593L-107.2140393523145,104.90543248926797A150,150,0,0,0,-103.64722390571333,108.43086726868381Z"><title>91</title></path><path fill="rgb(200, 49, 74)" display="" d="M-214.428078704629,209.81086497853593A300,300,0,0,1,-232.03272486623285,190.1599710537186L-116.01636243311643,95.0799855268593A150,150,0,0,0,-107.2140393523145,104.90543248926797Z"><title>92</title></path><path fill="rgb(253, 201, 121)" display="" d="M-232.03272486623285,190.1599710537186A300,300,0,0,1,-241.39100483204524,178.13024107707122L-120.69550241602262,89.06512053853561A150,150,0,0,0,-116.01636243311643,95.0799855268593Z"><title>95</title></path><path fill="rgb(252, 246, 173)" display="" d="M-241.39100483204524,178.13024107707122A300,300,0,0,1,-249.13225116050083,167.13204788938936L-124.56612558025041,83.56602394469468A150,150,0,0,0,-120.69550241602262,89.06512053853561Z"><title>96</title></path><path fill="rgb(189, 36, 73)" display="" d="M-249.13225116050083,167.13204788938936A300,300,0,0,1,-255.87399219974722,156.61577224457216L-127.93699609987361,78.30788612228608A150,150,0,0,0,-124.56612558025041,83.56602394469468Z"><title>99</title></path><path fill="rgb(139, 208, 165)" display="" d="M-255.87399219974722,156.61577224457216A300,300,0,0,1,-264.9093800341395,140.79424835527857L-132.45469001706974,70.39712417763928A150,150,0,0,0,-127.93699609987361,78.30788612228608Z"><title>102</title></path><path fill="rgb(203, 234, 159)" display="" d="M-264.9093800341395,140.79424835527857A300,300,0,0,1,-266.3579082918996,138.03428809670444L-133.1789541459498,69.01714404835222A150,150,0,0,0,-132.45469001706974,70.39712417763928Z"><title>104</title></path><path fill="rgb(254, 212, 131)" display="" d="M-266.3579082918996,138.03428809670444A300,300,0,0,1,-268.22763327308735,134.3649386883281L-134.11381663654367,67.18246934416405A150,150,0,0,0,-133.1789541459498,69.01714404835222Z"><title>112</title></path><path fill="rgb(69, 118, 178)" display="" d="M-268.22763327308735,134.3649386883281A300,300,0,0,1,-269.9481588020246,130.87395294479697L-134.9740794010123,65.43697647239848A150,150,0,0,0,-134.11381663654367,67.18246934416405Z"><title>113</title></path><path fill="rgb(250, 249, 176)" display="" d="M-269.9481588020246,130.87395294479697A300,300,0,0,1,-278.5384930075822,111.42848788826444L-139.2692465037911,55.71424394413222A150,150,0,0,0,-134.9740794010123,65.43697647239848Z"><title>116</title></path><path fill="rgb(67, 125, 179)" display="" d="M-278.5384930075822,111.42848788826444A300,300,0,0,1,-287.18391092122516,86.7490709344475L-143.59195546061258,43.37453546722375A150,150,0,0,0,-139.2692465037911,55.71424394413222Z"><title>117</title></path><path fill="rgb(102, 187, 169)" display="" d="M-287.18391092122516,86.7490709344475A300,300,0,0,1,-289.80670315449566,77.53757029158211L-144.90335157724783,38.76878514579106A150,150,0,0,0,-143.59195546061258,43.37453546722375Z"><title>118</title></path><path fill="rgb(254, 226, 147)" display="" d="M-289.80670315449566,77.53757029158211A300,300,0,0,1,-291.27258032794083,71.83511640627621L-145.63629016397041,35.91755820313811A150,150,0,0,0,-144.90335157724783,38.76878514579106Z"><title>120</title></path><path fill="rgb(231, 91, 73)" display="" d="M-291.27258032794083,71.83511640627621A300,300,0,0,1,-295.7952221255001,50.05183880464377L-147.89761106275006,25.025919402321886A150,150,0,0,0,-145.63629016397041,35.91755820313811Z"><title>121</title></path><path fill="rgb(124, 200, 166)" display="" d="M-295.7952221255001,50.05183880464377A300,300,0,0,1,-296.8902500958629,43.08340049271882L-148.44512504793144,21.54170024635941A150,150,0,0,0,-147.89761106275006,25.025919402321886Z"><title>129</title></path><path fill="rgb(158, 1, 66)" display="" d="M-296.8902500958629,43.08340049271882A300,300,0,0,1,-298.1778266866697,33.01490076335772L-149.08891334333484,16.50745038167886A150,150,0,0,0,-148.44512504793144,21.54170024635941Z"><title>130</title></path><path fill="rgb(203, 234, 159)" display="" d="M-298.1778266866697,33.01490076335772A300,300,0,0,1,-299.7454284042876,-12.356300042087L-149.8727142021438,-6.1781500210435A150,150,0,0,0,-149.08891334333484,16.50745038167886Z"><title>131</title></path><path fill="rgb(83, 170, 175)" display="" d="M-299.7454284042876,-12.356300042087A300,300,0,0,1,-287.0453039178945,-87.20661384713648L-143.52265195894725,-43.60330692356824A150,150,0,0,0,-149.8727142021438,-6.1781500210435Z"><title>133</title></path><path fill="rgb(68, 145, 180)" display="" d="M-287.0453039178945,-87.20661384713648A300,300,0,0,1,-283.4851534418033,-98.16398411880633L-141.74257672090164,-49.08199205940316A150,150,0,0,0,-143.52265195894725,-43.60330692356824Z"><title>135</title></path><path fill="rgb(109, 192, 168)" display="" d="M-283.4851534418033,-98.16398411880633A300,300,0,0,1,-281.56294938699637,-103.54856605716817L-140.78147469349818,-51.77428302858409A150,150,0,0,0,-141.74257672090164,-49.08199205940316Z"><title>137</title></path><path fill="rgb(79, 99, 171)" display="" d="M-281.56294938699637,-103.54856605716817A300,300,0,0,1,-278.49738337768076,-111.53119497156428L-139.24869168884038,-55.76559748578214A150,150,0,0,0,-140.78147469349818,-51.77428302858409Z"><title>141</title></path><path fill="rgb(238, 248, 168)" display="" d="M-278.49738337768076,-111.53119497156428A300,300,0,0,1,-278.0262371645875,-112.7005388101608L-139.01311858229374,-56.3502694050804A150,150,0,0,0,-139.24869168884038,-55.76559748578214Z"><title>142</title></path><path fill="rgb(74, 158, 178)" display="" d="M-278.0262371645875,-112.7005388101608A300,300,0,0,1,-277.56447635760605,-113.83304205865684L-138.78223817880303,-56.91652102932842A150,150,0,0,0,-139.01311858229374,-56.3502694050804Z"><title>144</title></path><path fill="rgb(234, 97, 73)" display="" d="M-277.56447635760605,-113.83304205865684A300,300,0,0,1,-266.2167830022671,-138.30627045771945L-133.10839150113355,-69.15313522885972A150,150,0,0,0,-138.78223817880303,-56.91652102932842Z"><title>149</title></path><path fill="rgb(215, 239, 159)" display="" d="M-266.2167830022671,-138.30627045771945A300,300,0,0,1,-264.65075615673123,-141.27978364108L-132.32537807836562,-70.63989182054A150,150,0,0,0,-133.10839150113355,-69.15313522885972Z"><title>150</title></path><path fill="rgb(169, 220, 162)" display="" d="M-264.65075615673123,-141.27978364108A300,300,0,0,1,-259.7841192895216,-150.04069902852228L-129.8920596447608,-75.02034951426114A150,150,0,0,0,-132.32537807836562,-70.63989182054Z"><title>151</title></path><path fill="rgb(171, 15, 69)" display="" d="M-259.7841192895216,-150.04069902852228A300,300,0,0,1,-246.59219643044534,-170.85750981331975L-123.29609821522267,-85.42875490665988A150,150,0,0,0,-129.8920596447608,-75.02034951426114Z"><title>153</title></path><path fill="rgb(220, 74, 74)" display="" d="M-246.59219643044534,-170.85750981331975A300,300,0,0,1,-237.75547348581225,-182.9544610758022L-118.87773674290612,-91.4772305379011A150,150,0,0,0,-123.29609821522267,-85.42875490665988Z"><title>155</title></path><path fill="rgb(209, 237, 158)" display="" d="M-237.75547348581225,-182.9544610758022A300,300,0,0,1,-207.04143860975935,-217.10329960274956L-103.52071930487968,-108.55164980137478A150,150,0,0,0,-118.87773674290612,-91.4772305379011Z"><title>160</title></path><path fill="rgb(164, 8, 67)" display="" d="M-207.04143860975935,-217.10329960274956A300,300,0,0,1,-199.74255297431543,-223.8367988765538L-99.87127648715771,-111.9183994382769A150,150,0,0,0,-103.52071930487968,-108.55164980137478Z"><title>171</title></path><path fill="rgb(84, 92, 168)" display="" d="M-199.74255297431543,-223.8367988765538A300,300,0,0,1,-188.19812014685016,-233.62676981286145L-94.09906007342508,-116.81338490643073A150,150,0,0,0,-99.87127648715771,-111.9183994382769Z"><title>174</title></path><path fill="rgb(183, 226, 161)" display="" d="M-188.19812014685016,-233.62676981286145A300,300,0,0,1,-161.91161412136736,-252.5561902084632L-80.95580706068368,-126.2780951042316A150,150,0,0,0,-94.09906007342508,-116.81338490643073Z"><title>181</title></path><path fill="rgb(78, 164, 177)" display="" d="M-161.91161412136736,-252.5561902084632A300,300,0,0,1,-157.63201833177553,-255.24918569243425L-78.81600916588776,-127.62459284621713A150,150,0,0,0,-80.95580706068368,-126.2780951042316Z"><title>185</title></path><path fill="rgb(69, 118, 178)" display="" d="M-157.63201833177553,-255.24918569243425A300,300,0,0,1,-154.90100269729297,-256.91570478149686L-77.45050134864648,-128.45785239074843A150,150,0,0,0,-78.81600916588776,-127.62459284621713Z"><title>193</title></path><path fill="rgb(249, 150, 87)" display="" d="M-154.90100269729297,-256.91570478149686A300,300,0,0,1,-149.69480619503304,-259.9835860169474L-74.84740309751652,-129.9917930084737A150,150,0,0,0,-77.45050134864648,-128.45785239074843Z"><title>197</title></path><path fill="rgb(66, 138, 181)" display="" d="M-149.69480619503304,-259.9835860169474A300,300,0,0,1,-141.6975325265684,-264.42732324002014L-70.8487662632842,-132.21366162001007A150,150,0,0,0,-74.84740309751652,-129.9917930084737Z"><title>200</title></path><path fill="rgb(253, 244, 171)" display="" d="M-141.6975325265684,-264.42732324002014A300,300,0,0,1,-129.11500242282008,-270.79386283546967L-64.55750121141004,-135.39693141773483A150,150,0,0,0,-70.8487662632842,-132.21366162001007Z"><title>201</title></path><path fill="rgb(89, 176, 173)" display="" d="M-129.11500242282008,-270.79386283546967A300,300,0,0,1,-117.27959650818737,-276.1258702890346L-58.639798254093684,-138.0629351445173A150,150,0,0,0,-64.55750121141004,-135.39693141773483Z"><title>202</title></path><path fill="rgb(183, 29, 72)" display="" d="M-117.27959650818737,-276.1258702890346A300,300,0,0,1,-110.9871765422694,-278.71463299076197L-55.4935882711347,-139.35731649538099A150,150,0,0,0,-58.639798254093684,-138.0629351445173Z"><title>204</title></path><path fill="rgb(70, 151, 179)" display="" d="M-110.9871765422694,-278.71463299076197A300,300,0,0,1,-104.5424969654268,-281.19542373273737L-52.2712484827134,-140.59771186636868A150,150,0,0,0,-55.4935882711347,-139.35731649538099Z"><title>205</title></path><path fill="rgb(69, 118, 178)" display="" d="M-104.5424969654268,-281.19542373273737A300,300,0,0,1,-97.7313679401643,-283.63458837127786L-48.86568397008215,-141.81729418563893A150,150,0,0,0,-52.2712484827134,-140.59771186636868Z"><title>206</title></path><path fill="rgb(210, 62, 75)" display="" d="M-97.7313679401643,-283.63458837127786A300,300,0,0,1,-81.48714483243481,-288.7210508900551L-40.743572416217404,-144.36052544502755A150,150,0,0,0,-48.86568397008215,-141.81729418563893Z"><title>207</title></path><path fill="rgb(234, 246, 165)" display="" d="M-81.48714483243481,-288.7210508900551A300,300,0,0,1,-74.34905378771982,-290.6410469993369L-37.17452689385991,-145.32052349966844A150,150,0,0,0,-40.743572416217404,-144.36052544502755Z"><title>208</title></path><path fill="rgb(254, 234, 158)" display="" d="M-74.34905378771982,-290.6410469993369A300,300,0,0,1,-62.69804676769453,-293.37510959779115L-31.349023383847264,-146.68755479889558A150,150,0,0,0,-37.17452689385991,-145.32052349966844Z"><title>209</title></path><path fill="rgb(254, 222, 142)" display="" d="M-62.69804676769453,-293.37510959779115A300,300,0,0,1,-53.3952408600592,-295.2100070348163L-26.6976204300296,-147.60500351740814A150,150,0,0,0,-31.349023383847264,-146.68755479889558Z"><title>210</title></path><path fill="rgb(95, 182, 171)" display="" d="M-53.3952408600592,-295.2100070348163A300,300,0,0,1,-48.87347532620091,-295.9922016025747L-24.436737663100455,-147.99610080128735A150,150,0,0,0,-26.6976204300296,-147.60500351740814Z"><title>212</title></path><path fill="rgb(254, 207, 126)" display="" d="M-48.87347532620091,-295.9922016025747A300,300,0,0,1,-24.508590348185358,-298.9972056711314L-12.254295174092679,-149.4986028355657A150,150,0,0,0,-24.436737663100455,-147.99610080128735Z"><title>213</title></path><path fill="rgb(253, 184, 107)" display="" d="M-24.508590348185358,-298.9972056711314A300,300,0,0,1,-20.605110206869625,-299.2915458768636L-10.302555103434813,-149.6457729384318A150,150,0,0,0,-12.254295174092679,-149.4986028355657Z"><title>214</title></path><path fill="rgb(247, 136, 81)" display="" d="M-20.605110206869625,-299.2915458768636A300,300,0,0,1,4.777979458584443e-13,-300L2.3889897292922214e-13,-150A150,150,0,0,0,-10.302555103434813,-149.6457729384318Z"><title>215</title></path></g><g id="labels" transform="translate(400,400)" text-anchor="middle"><text transform="rotate(90) translate(75,0) rotate(180)"><tspan x="0" y="4" style="font-family: Arial, sans-serif; font-size: 10px; fill: black; font-weight: normal; font-style: italic;"/></text><text/><text transform="rotate(-85.80660992443114) translate(225,0) rotate(0)"><tspan x="0" y="4" style="font-family: Arial, sans-serif; font-size: 10px; fill: black; font-weight: bold;">LALA</tspan></text><text transform="rotate(-83.05061522933775) translate(225,0) rotate(0)"><tspan x="0" y="4" style="font-family: Arial, sans-serif; font-size: 10px; fill: black; font-weight: bold;">vampire</tspan></text><text transform="rotate(-78.58778188105867) translate(225,0) rotate(0)"><tspan x="0" y="4" style="font-family: Arial, sans-serif; font-size: 10px; fill: black; font-weight: bold;">WHERE SHE GOES</tspan></text><text transform="rotate(-73.68492558115886) translate(225,0) rotate(0)"><tspan x="0" y="4" style="font-family: Arial, sans-serif; font-size: 10px; fill: black; font-weight: bold;">Sprinter</tspan></text><text transform="rotate(-64.52560816791774) translate(225,0) rotate(0)"><tspan x="0" y="4" style="font-family: Arial, sans-serif; font-size: 10px; fill: black; font-weight: bold;">Ella Baila Sola</tspan></text><text transform="rotate(-56.63047934294045) translate(225,0) rotate(0)"><tspan x="0" y="4" style="font-family: Arial, sans-serif; font-size: 10px; fill: black; font-weight: bold;">Columbia</tspan></text><text transform="rotate(-55.08628311752397) translate(225,0) rotate(0)"><tspan x="0" y="4" style="font-family: Arial, sans-serif; font-size: 10px; fill: black; font-weight: bold;">fukumean</tspan></text><text transform="rotate(-48.55322280735178) translate(225,0) rotate(0)"><tspan x="0" y="4" style="font-family: Arial, sans-serif; font-size: 10px; fill: black; font-weight: bold;">La Bebe - Remix</tspan></text><text transform="rotate(-37.88744179332228) translate(225,0) rotate(0)"><tspan x="0" y="4" style="font-family: Arial, sans-serif; font-size: 10px; fill: black; font-weight: bold;">un x100to</tspan></text><text transform="rotate(-32.20945988233727) translate(225,0) rotate(0)"><tspan x="0" y="4" style="font-family: Arial, sans-serif; font-size: 10px; fill: black; font-weight: bold;">Super Shy</tspan></text><text transform="rotate(-18.36394383664424) translate(225,0) rotate(0)"><tspan x="0" y="4" style="font-family: Arial, sans-serif; font-size: 10px; fill: black; font-weight: bold;">Flowers</tspan></text><text transform="rotate(-1.2026629127374378) translate(225,0) rotate(0)"><tspan x="0" y="4" style="font-family: Arial, sans-serif; font-size: 10px; fill: black; font-weight: bold;">Daylight</tspan></text><text transform="rotate(7.701716997199398) translate(225,0) rotate(0)"><tspan x="0" y="4" style="font-family: Arial, sans-serif; font-size: 10px; fill: black; font-weight: bold;">Cupid - Twin Ver.</tspan></text><text transform="rotate(13.011347064995306) translate(225,0) rotate(0)"><tspan x="0" y="4" style="font-family: Arial, sans-serif; font-size: 10px; fill: black; font-weight: bold;">What Was I Made For? [From The Motion Picture "Barbie"]</tspan></text><text transform="rotate(16.69414988741333) translate(225,0) rotate(0)"><tspan x="0" y="4" style="font-family: Arial, sans-serif; font-size: 10px; fill: black; font-weight: bold;">Classy 101</tspan></text><text transform="rotate(23.72803100701634) translate(225,0) rotate(0)"><tspan x="0" y="4" style="font-family: Arial, sans-serif; font-size: 10px; fill: black; font-weight: bold;">Like Crazy</tspan></text><text transform="rotate(28.25705854869581) translate(225,0) rotate(0)"><tspan x="0" y="4" style="font-family: Arial, sans-serif; font-size: 10px; fill: black; font-weight: bold;">LADY GAGA</tspan></text><text transform="rotate(29.6523735790321) translate(225,0) rotate(0)"><tspan x="0" y="4" style="font-family: Arial, sans-serif; font-size: 10px; fill: black; font-weight: bold;">I Can See You (Taylorï¿½ï¿½ï¿½s Version) (From The</tspan></text><text transform="rotate(32.197552893039074) translate(225,0) rotate(0)"><tspan x="0" y="4" style="font-family: Arial, sans-serif; font-size: 10px; fill: black; font-weight: bold;">Peso Pluma: Bzrp Music Sessions, Vol. 55</tspan></text><text transform="rotate(35.37936630640867) translate(225,0) rotate(0)"><tspan x="0" y="4" style="font-family: Arial, sans-serif; font-size: 10px; fill: black; font-weight: bold;">Popular (with Playboi Carti &amp; Madonna) - The Idol Vol. 1 (Music from the HBO Original Series)</tspan></text><text transform="rotate(37.32931442191942) translate(225,0) rotate(0)"><tspan x="0" y="4" style="font-family: Arial, sans-serif; font-size: 10px; fill: black; font-weight: bold;">SABOR FRESA</tspan></text><text transform="rotate(38.734354292295876) translate(225,0) rotate(0)"><tspan x="0" y="4" style="font-family: Arial, sans-serif; font-size: 10px; fill: black; font-weight: bold;">MOJABI GHOST</tspan></text><text transform="rotate(43.67881975951576) translate(225,0) rotate(0)"><tspan x="0" y="4" style="font-family: Arial, sans-serif; font-size: 10px; fill: black; font-weight: bold;">Last Night</tspan></text><text transform="rotate(49.28946430221927) translate(225,0) rotate(0)"><tspan x="0" y="4" style="font-family: Arial, sans-serif; font-size: 10px; fill: black; font-weight: bold;">Dance The Night (From Barbie The Album)</tspan></text><text transform="rotate(50.79966293076231) translate(225,0) rotate(0)"><tspan x="0" y="4" style="font-family: Arial, sans-serif; font-size: 10px; fill: black; font-weight: bold;">Rush</tspan></text><text transform="rotate(51.55355772687588) translate(225,0) rotate(0)"><tspan x="0" y="4" style="font-family: Arial, sans-serif; font-size: 10px; fill: black; font-weight: bold;">TULUM</tspan></text><text transform="rotate(58.31249094980049) translate(225,0) rotate(0)"><tspan x="0" y="4" style="font-family: Arial, sans-serif; font-size: 10px; fill: black; font-weight: bold;">TQG</tspan></text><text transform="rotate(65.78456830533443) translate(225,0) rotate(0)"><tspan x="0" y="4" style="font-family: Arial, sans-serif; font-size: 10px; fill: black; font-weight: bold;">Los del Espacio</tspan></text><text transform="rotate(68.92655146110275) translate(225,0) rotate(0)"><tspan x="0" y="4" style="font-family: Arial, sans-serif; font-size: 10px; fill: black; font-weight: bold;">Frï¿½ï¿½gil (feat. Grupo Front</tspan></text><text transform="rotate(72.60651352344226) translate(225,0) rotate(0)"><tspan x="0" y="4" style="font-family: Arial, sans-serif; font-size: 10px; fill: black; font-weight: bold;">TQM</tspan></text><text transform="rotate(77.95346119600137) translate(225,0) rotate(0)"><tspan x="0" y="4" style="font-family: Arial, sans-serif; font-size: 10px; fill: black; font-weight: bold;">El Azul</tspan></text><text transform="rotate(82.17878818743199) translate(225,0) rotate(0)"><tspan x="0" y="4" style="font-family: Arial, sans-serif; font-size: 10px; fill: black; font-weight: bold;">Barbie World (with Aqua) [From Barbie The Album]</tspan></text><text transform="rotate(88.0578886403911) translate(225,0) rotate(0)"><tspan x="0" y="4" style="font-family: Arial, sans-serif; font-size: 10px; fill: black; font-weight: bold;">Die For You - Remix</tspan></text><text transform="rotate(94.36589011872354) translate(225,0) rotate(180)"><tspan x="0" y="4" style="font-family: Arial, sans-serif; font-size: 10px; fill: black; font-weight: bold;">El Cielo</tspan></text><text transform="rotate(97.24043572807759) translate(225,0) rotate(180)"><tspan x="0" y="4" style="font-family: Arial, sans-serif; font-size: 10px; fill: black; font-weight: bold;">Baby Don't Hurt Me</tspan></text><text transform="rotate(100.57429483405014) translate(225,0) rotate(180)"><tspan x="0" y="4" style="font-family: Arial, sans-serif; font-size: 10px; fill: black; font-weight: bold;">AMARGURA</tspan></text><text transform="rotate(102.70128247574931) translate(225,0) rotate(180)"><tspan x="0" y="4" style="font-family: Arial, sans-serif; font-size: 10px; fill: black; font-weight: bold;">(It Goes Like) Nanana - Edit</tspan></text><text transform="rotate(105.86646290503319) translate(225,0) rotate(180)"><tspan x="0" y="4" style="font-family: Arial, sans-serif; font-size: 10px; fill: black; font-weight: bold;">Moonlight</tspan></text><text transform="rotate(108.61011797081824) translate(225,0) rotate(180)"><tspan x="0" y="4" style="font-family: Arial, sans-serif; font-size: 10px; fill: black; font-weight: bold;">S91</tspan></text><text transform="rotate(109.89849281610557) translate(225,0) rotate(180)"><tspan x="0" y="4" style="font-family: Arial, sans-serif; font-size: 10px; fill: black; font-weight: bold;">Tï¿½ï¿</tspan></text><text transform="rotate(112.59977472521342) translate(225,0) rotate(180)"><tspan x="0" y="4" style="font-family: Arial, sans-serif; font-size: 10px; fill: black; font-weight: bold;">Boy's a liar Pt. 2</tspan></text><text transform="rotate(117.77772474611302) translate(225,0) rotate(180)"><tspan x="0" y="4" style="font-family: Arial, sans-serif; font-size: 10px; fill: black; font-weight: bold;">BESO</tspan></text><text transform="rotate(121.53037418644547) translate(225,0) rotate(180)"><tspan x="0" y="4" style="font-family: Arial, sans-serif; font-size: 10px; fill: black; font-weight: bold;">Overdrive</tspan></text><text transform="rotate(122.07769217270157) translate(225,0) rotate(180)"><tspan x="0" y="4" style="font-family: Arial, sans-serif; font-size: 10px; fill: black; font-weight: bold;">Enchanted (Taylor's Version)</tspan></text><text transform="rotate(123.02257779368134) translate(225,0) rotate(180)"><tspan x="0" y="4" style="font-family: Arial, sans-serif; font-size: 10px; fill: black; font-weight: bold;">BABY HELLO</tspan></text><text transform="rotate(124.01055170758448) translate(225,0) rotate(180)"><tspan x="0" y="4" style="font-family: Arial, sans-serif; font-size: 10px; fill: black; font-weight: bold;">CORAZï¿½ï¿½N VA</tspan></text><text transform="rotate(124.85195611897282) translate(225,0) rotate(180)"><tspan x="0" y="4" style="font-family: Arial, sans-serif; font-size: 10px; fill: black; font-weight: bold;">Novidade na ï¿½ï¿</tspan></text><text transform="rotate(125.64675576996385) translate(225,0) rotate(180)"><tspan x="0" y="4" style="font-family: Arial, sans-serif; font-size: 10px; fill: black; font-weight: bold;">Back To December (Taylor's Version)</tspan></text><text transform="rotate(128.29342407940044) translate(225,0) rotate(180)"><tspan x="0" y="4" style="font-family: Arial, sans-serif; font-size: 10px; fill: black; font-weight: bold;">El Merengue</tspan></text><text transform="rotate(132.12648134053234) translate(225,0) rotate(180)"><tspan x="0" y="4" style="font-family: Arial, sans-serif; font-size: 10px; fill: black; font-weight: bold;">Fast Car</tspan></text><text transform="rotate(134.6657040285387) translate(225,0) rotate(180)"><tspan x="0" y="4" style="font-family: Arial, sans-serif; font-size: 10px; fill: black; font-weight: bold;">What It Is (Solo Version)</tspan></text><text transform="rotate(138.143792268933) translate(225,0) rotate(180)"><tspan x="0" y="4" style="font-family: Arial, sans-serif; font-size: 10px; fill: black; font-weight: bold;">Coco Chanel</tspan></text><text transform="rotate(142.11960583179246) translate(225,0) rotate(180)"><tspan x="0" y="4" style="font-family: Arial, sans-serif; font-size: 10px; fill: black; font-weight: bold;">All My Life (feat. J. Cole)</tspan></text><text transform="rotate(144.85961583324973) translate(225,0) rotate(180)"><tspan x="0" y="4" style="font-family: Arial, sans-serif; font-size: 10px; fill: black; font-weight: bold;">Say Yes To Heaven</tspan></text><text transform="rotate(147.33700710600507) translate(225,0) rotate(180)"><tspan x="0" y="4" style="font-family: Arial, sans-serif; font-size: 10px; fill: black; font-weight: bold;">Take Two</tspan></text><text transform="rotate(150.27008922387583) translate(225,0) rotate(180)"><tspan x="0" y="4" style="font-family: Arial, sans-serif; font-size: 10px; fill: black; font-weight: bold;">Chemical</tspan></text><text transform="rotate(152.30786531544427) translate(225,0) rotate(180)"><tspan x="0" y="4" style="font-family: Arial, sans-serif; font-size: 10px; fill: black; font-weight: bold;">New Jeans</tspan></text><text transform="rotate(152.99878424270656) translate(225,0) rotate(180)"><tspan x="0" y="4" style="font-family: Arial, sans-serif; font-size: 10px; fill: black; font-weight: bold;">LAGUNAS</tspan></text><text transform="rotate(153.76370680301184) translate(225,0) rotate(180)"><tspan x="0" y="4" style="font-family: Arial, sans-serif; font-size: 10px; fill: black; font-weight: bold;">Mine (Taylor's Version)</tspan></text><text transform="rotate(156.16581570348055) translate(225,0) rotate(180)"><tspan x="0" y="4" style="font-family: Arial, sans-serif; font-size: 10px; fill: black; font-weight: bold;">Tattoo</tspan></text><text transform="rotate(160.69419119910225) translate(225,0) rotate(180)"><tspan x="0" y="4" style="font-family: Arial, sans-serif; font-size: 10px; fill: black; font-weight: bold;">Rara Vez</tspan></text><text transform="rotate(164.10674728025901) translate(225,0) rotate(180)"><tspan x="0" y="4" style="font-family: Arial, sans-serif; font-size: 10px; fill: black; font-weight: bold;">VAGABUNDO</tspan></text><text transform="rotate(165.58363862894169) translate(225,0) rotate(180)"><tspan x="0" y="4" style="font-family: Arial, sans-serif; font-size: 10px; fill: black; font-weight: bold;">LUNA</tspan></text><text transform="rotate(168.27089330158043) translate(225,0) rotate(180)"><tspan x="0" y="4" style="font-family: Arial, sans-serif; font-size: 10px; fill: black; font-weight: bold;">Miracle (with Ellie Goulding)</tspan></text><text transform="rotate(171.0695088825234) translate(225,0) rotate(180)"><tspan x="0" y="4" style="font-family: Arial, sans-serif; font-size: 10px; fill: black; font-weight: bold;">Rauw Alejandro: Bzrp Music Sessions, Vol. 56</tspan></text><text transform="rotate(172.71247413693766) translate(225,0) rotate(180)"><tspan x="0" y="4" style="font-family: Arial, sans-serif; font-size: 10px; fill: black; font-weight: bold;">Queencard</tspan></text><text transform="rotate(178.0211842116454) translate(225,0) rotate(180)"><tspan x="0" y="4" style="font-family: Arial, sans-serif; font-size: 10px; fill: black; font-weight: bold;">OMG</tspan></text><text transform="rotate(189.62986997986633) translate(225,0) rotate(180)"><tspan x="0" y="4" style="font-family: Arial, sans-serif; font-size: 10px; fill: black; font-weight: bold;">Shakira: Bzrp Music Sessions, Vol. 53</tspan></text><text transform="rotate(197.99945635307523) translate(225,0) rotate(180)"><tspan x="0" y="4" style="font-family: Arial, sans-serif; font-size: 10px; fill: black; font-weight: bold;">Calling (Spider-Man: Across the Spider-Verse) (Metro Boomin &amp; Swae Lee, NAV, feat. A Boogie Wit da Hoodie)</tspan></text><text transform="rotate(199.6456991055204) translate(225,0) rotate(180)"><tspan x="0" y="4" style="font-family: Arial, sans-serif; font-size: 10px; fill: black; font-weight: bold;">Tere Vaaste (From "Zara Hatke Zara Bachke")</tspan></text><text transform="rotate(201.00826880773468) translate(225,0) rotate(180)"><tspan x="0" y="4" style="font-family: Arial, sans-serif; font-size: 10px; fill: black; font-weight: bold;">Novo Balanï¿½</tspan></text><text transform="rotate(201.94524664852463) translate(225,0) rotate(180)"><tspan x="0" y="4" style="font-family: Arial, sans-serif; font-size: 10px; fill: black; font-weight: bold;">Gol Bolinha, Gol Quadrado 2</tspan></text><text transform="rotate(202.18242416312097) translate(225,0) rotate(180)"><tspan x="0" y="4" style="font-family: Arial, sans-serif; font-size: 10px; fill: black; font-weight: bold;">QUEMA</tspan></text><text transform="rotate(204.8761092221548) translate(225,0) rotate(180)"><tspan x="0" y="4" style="font-family: Arial, sans-serif; font-size: 10px; fill: black; font-weight: bold;">El Gordo Trae El Mando</tspan></text><text transform="rotate(207.7739277508249) translate(225,0) rotate(180)"><tspan x="0" y="4" style="font-family: Arial, sans-serif; font-size: 10px; fill: black; font-weight: bold;">Mi Bello Angel</tspan></text><text transform="rotate(209.05191363769774) translate(225,0) rotate(180)"><tspan x="0" y="4" style="font-family: Arial, sans-serif; font-size: 10px; fill: black; font-weight: bold;">Bye</tspan></text><text transform="rotate(212.36304365251476) translate(225,0) rotate(180)"><tspan x="0" y="4" style="font-family: Arial, sans-serif; font-size: 10px; fill: black; font-weight: bold;">Nosso Quadro</tspan></text><text transform="rotate(216.14781969208894) translate(225,0) rotate(180)"><tspan x="0" y="4" style="font-family: Arial, sans-serif; font-size: 10px; fill: black; font-weight: bold;">Un Finde | CROSSOVER #2</tspan></text><text transform="rotate(221.9687419799409) translate(225,0) rotate(180)"><tspan x="0" y="4" style="font-family: Arial, sans-serif; font-size: 10px; fill: black; font-weight: bold;">PRC</tspan></text><text transform="rotate(227.3072870281532) translate(225,0) rotate(180)"><tspan x="0" y="4" style="font-family: Arial, sans-serif; font-size: 10px; fill: black; font-weight: bold;">Am I Dreaming (Metro Boomin &amp; A$AP Rocky, Roisee)</tspan></text><text transform="rotate(229.70121272039142) translate(225,0) rotate(180)"><tspan x="0" y="4" style="font-family: Arial, sans-serif; font-size: 10px; fill: black; font-weight: bold;">ýýýýýýýýýýýý</tspan></text><text transform="rotate(234.2416111861412) translate(225,0) rotate(180)"><tspan x="0" y="4" style="font-family: Arial, sans-serif; font-size: 10px; fill: black; font-weight: bold;">Fin de Semana</tspan></text><text transform="rotate(237.81927112866055) translate(225,0) rotate(180)"><tspan x="0" y="4" style="font-family: Arial, sans-serif; font-size: 10px; fill: black; font-weight: bold;">Cheques</tspan></text><text transform="rotate(238.60764257815435) translate(225,0) rotate(180)"><tspan x="0" y="4" style="font-family: Arial, sans-serif; font-size: 10px; fill: black; font-weight: bold;">Better Than Revenge (Taylor's Version)</tspan></text><text transform="rotate(239.490219952549) translate(225,0) rotate(180)"><tspan x="0" y="4" style="font-family: Arial, sans-serif; font-size: 10px; fill: black; font-weight: bold;">POLARIS - Remix</tspan></text><text transform="rotate(240.94097578292588) translate(225,0) rotate(180)"><tspan x="0" y="4" style="font-family: Arial, sans-serif; font-size: 10px; fill: black; font-weight: bold;">Annihilate (Spider-Man: Across the Spider-Verse) (Metro Boomin &amp; Swae Lee, Lil Wayne, Offset)</tspan></text><text transform="rotate(243.1613895423128) translate(225,0) rotate(180)"><tspan x="0" y="4" style="font-family: Arial, sans-serif; font-size: 10px; fill: black; font-weight: bold;">Angel Pt 1 (feat. Jimin of BTS, JVKE &amp; Muni Long)</tspan></text><text transform="rotate(245.74780335894167) translate(225,0) rotate(180)"><tspan x="0" y="4" style="font-family: Arial, sans-serif; font-size: 10px; fill: black; font-weight: bold;">Acrï¿½ï¿½s</tspan></text><text transform="rotate(247.6372580021329) translate(225,0) rotate(180)"><tspan x="0" y="4" style="font-family: Arial, sans-serif; font-size: 10px; fill: black; font-weight: bold;">Phir Aur Kya Chahiye (From "Zara Hatke Zara Bachke")</tspan></text><text transform="rotate(248.94647592858036) translate(225,0) rotate(180)"><tspan x="0" y="4" style="font-family: Arial, sans-serif; font-size: 10px; fill: black; font-weight: bold;">S-Class</tspan></text><text transform="rotate(250.2968134642345) translate(225,0) rotate(180)"><tspan x="0" y="4" style="font-family: Arial, sans-serif; font-size: 10px; fill: black; font-weight: bold;">Hits Different</tspan></text><text transform="rotate(252.6133888537433) translate(225,0) rotate(180)"><tspan x="0" y="4" style="font-family: Arial, sans-serif; font-size: 10px; fill: black; font-weight: bold;">Chanel</tspan></text><text transform="rotate(254.94496665910407) translate(225,0) rotate(180)"><tspan x="0" y="4" style="font-family: Arial, sans-serif; font-size: 10px; fill: black; font-weight: bold;">Self Love (Spider-Man: Across the Spider-Verse) (Metro Boomin &amp; Coi Leray)</tspan></text><text transform="rotate(256.7937374443129) translate(225,0) rotate(180)"><tspan x="0" y="4" style="font-family: Arial, sans-serif; font-size: 10px; fill: black; font-weight: bold;">Area Codes</tspan></text><text transform="rotate(258.84213096213233) translate(225,0) rotate(180)"><tspan x="0" y="4" style="font-family: Arial, sans-serif; font-size: 10px; fill: black; font-weight: bold;">Abcdario</tspan></text><text transform="rotate(260.1858505021542) translate(225,0) rotate(180)"><tspan x="0" y="4" style="font-family: Arial, sans-serif; font-size: 10px; fill: black; font-weight: bold;">Piï¿½ï¿½man Deï¿</tspan></text><text transform="rotate(262.96902302265494) translate(225,0) rotate(180)"><tspan x="0" y="4" style="font-family: Arial, sans-serif; font-size: 10px; fill: black; font-weight: bold;">FLOWER</tspan></text><text transform="rotate(265.6877973963238) translate(225,0) rotate(180)"><tspan x="0" y="4" style="font-family: Arial, sans-serif; font-size: 10px; fill: black; font-weight: bold;">All The Way Live (Spider-Man: Across the Spider-Verse) (Metro Boomin &amp; Future, Lil Uzi Vert)</tspan></text><text transform="rotate(268.0308065779557) translate(225,0) rotate(180)"><tspan x="0" y="4" style="font-family: Arial, sans-serif; font-size: 10px; fill: black; font-weight: bold;">Eyes Closed</tspan></text></g></svg>